<?xml version="1.0" encoding="UTF-8"?>
<svg width="701px" height="110px" viewBox="0 0 701 110" version="1.1" xmlns="http://www.w3.org/2000/svg" xmlns:xlink="http://www.w3.org/1999/xlink">
    <!-- Generator: Sketch 59.1 (86144) - https://sketch.com -->
    <title>Group 8</title>
    <desc>Created with Sketch.</desc>
    <g id="Logo-Canonical" stroke="none" stroke-width="1" fill="none" fill-rule="evenodd">
        <g id="Group-8">
            <g id="Group-9" transform="translate(0.000000, 0.100000)">
                <rect id="Rectangle" fill="#ECD53F" x="0" y="0" width="107" height="107" rx="6"></rect>
                <g id="Group-2" transform="translate(16.000000, 70.000000)" fill="#09090B" fill-rule="nonzero">
                    <polygon id="Path" points="0 16.9767604 7.49 16.9767604 7.49 24.4667604 0 24.4667604"></polygon>
                    <g id="Group" transform="translate(13.910000, 0.000000)">
                        <path d="M18.71751,24.6861104 L18.71751,20.5398604 L4.96908,20.5398604 L4.96908,13.8416604 L17.32437,13.8416604 L17.32437,9.69541037 L4.96908,9.69541037 L4.96908,4.23948037 L18.24778,4.23948037 L18.24778,0.0761103748 L0,0.0761103748 L0,24.6861104 L18.71751,24.6861104 Z M27.597975,24.6861104 L27.597975,8.63771537 L37.51955,24.6861104 L42.505215,24.6861104 L42.505215,0.0761103748 L37.888165,0.0761103748 L37.888165,16.5113104 L27.816255,0.0761103748 L22.98146,0.0761103748 L22.98146,24.6861104 L27.597975,24.6861104 Z M59.3422,24.6861104 L68.15579,0.0761103748 L62.88497,0.0761103748 L56.858195,18.2901854 L50.63026,0.0761103748 L45.241205,0.0761103748 L54.037675,24.6861104 L59.3422,24.6861104 Z" id="Shape"></path>
                    </g>
                </g>
            </g>
            <path d="M187.3,87.3 L187.3,19.8 L204.1,19.8 C209.900029,19.8 214.77498,20.6249917 218.725,22.275 C222.67502,23.9250082 225.849988,26.2999845 228.25,29.4 C230.650012,32.5000155 232.374995,36.2249782 233.425,40.575 C234.475005,44.9250217 235,49.799973 235,55.2 C235,61.1000295 234.250008,66.0999795 232.75,70.2 C231.249993,74.3000205 229.250013,77.6249872 226.75,80.175 C224.249988,82.7250127 221.400016,84.5499945 218.2,85.65 C214.999984,86.7500055 211.700017,87.3 208.3,87.3 L187.3,87.3 Z M163.75,-4.54747351e-13 L163.75,107.1 L209.95,107.1 C218.150041,107.1 225.27497,105.725014 231.325,102.975 C237.37503,100.224986 242.42498,96.450024 246.475,91.65 C250.52502,86.849976 253.54999,81.150033 255.55,74.55 C257.55001,67.949967 258.55,60.750039 258.55,52.95 C258.55,44.0499555 257.325012,36.300033 254.875,29.7 C252.424988,23.099967 249.025022,17.600022 244.675,13.2 C240.324978,8.799978 235.17503,5.500011 229.225,3.3 C223.27497,1.099989 216.850034,-4.54747351e-13 209.95,-4.54747351e-13 L163.75,-4.54747351e-13 Z M284.55,68.4 C284.55,65.2999845 284.849997,62.250015 285.45,59.25 C286.05,56.249985 287.074993,53.6000115 288.525,51.3 C289.975007,48.9999885 291.899988,47.1250073 294.3,45.675 C296.700012,44.2249928 299.699982,43.5 303.3,43.5 C306.900018,43.5 309.924988,44.2249928 312.375,45.675 C314.825012,47.1250073 316.774993,48.9999885 318.225,51.3 C319.675007,53.6000115 320.699997,56.249985 321.3,59.25 C321.900003,62.250015 322.2,65.2999845 322.2,68.4 C322.2,71.5000155 321.900003,74.5249852 321.3,77.475 C320.699997,80.4250148 319.675007,83.0749882 318.225,85.425 C316.774993,87.7750117 314.825012,89.649993 312.375,91.05 C309.924988,92.450007 306.900018,93.15 303.3,93.15 C299.699982,93.15 296.700012,92.450007 294.3,91.05 C291.899988,89.649993 289.975007,87.7750117 288.525,85.425 C287.074993,83.0749882 286.05,80.4250148 285.45,77.475 C284.849997,74.5249852 284.55,71.5000155 284.55,68.4 Z M263.25,68.4 C263.25,74.600031 264.199991,80.199975 266.1,85.2 C268.00001,90.200025 270.699983,94.4749823 274.2,98.025 C277.700018,101.575018 281.899976,104.299991 286.8,106.2 C291.700025,108.100009 297.19997,109.05 303.3,109.05 C309.400031,109.05 314.924975,108.100009 319.875,106.2 C324.825025,104.299991 329.049982,101.575018 332.55,98.025 C336.050017,94.4749823 338.75,90.200025 340.65,85.2 C342.550009,80.199975 343.5,74.600031 343.5,68.4 C343.5,62.199969 342.550009,56.5750252 340.65,51.525 C338.75,46.4749747 336.050017,42.1750178 332.55,38.625 C329.049982,35.0749822 324.825025,32.3250097 319.875,30.375 C314.924975,28.4249903 309.400031,27.45 303.3,27.45 C297.19997,27.45 291.700025,28.4249903 286.8,30.375 C281.899976,32.3250097 277.700018,35.0749822 274.2,38.625 C270.699983,42.1750178 268.00001,46.4749747 266.1,51.525 C264.199991,56.5750252 263.25,62.199969 263.25,68.4 Z M377.3,29.55 L377.3,6.3 L356,6.3 L356,29.55 L343.1,29.55 L343.1,43.8 L356,43.8 L356,89.55 C356,93.4500195 356.649994,96.599988 357.95,99 C359.250007,101.400012 361.024989,103.249994 363.275,104.55 C365.525011,105.850007 368.124985,106.724998 371.075,107.175 C374.025015,107.625002 377.149984,107.85 380.45,107.85 C382.550011,107.85 384.699989,107.8 386.9,107.7 C389.100011,107.599999 391.1,107.400001 392.9,107.1 L392.9,90.6 C391.899995,90.8 390.850006,90.9499995 389.75,91.05 C388.649995,91.1500005 387.500006,91.2 386.3,91.2 C382.699982,91.2 380.300006,90.600006 379.1,89.4 C377.899994,88.199994 377.3,85.800018 377.3,82.2 L377.3,43.8 L392.9,43.8 L392.9,29.55 L377.3,29.55 Z M448.3,60 L413.65,60 C413.750001,58.5 414.074997,56.8000095 414.625,54.9 C415.175003,53 416.124993,51.2000085 417.475,49.5 C418.825007,47.7999915 420.624989,46.3750057 422.875,45.225 C425.125011,44.0749943 427.949983,43.5 431.35,43.5 C436.550026,43.5 440.424987,44.899986 442.975,47.7 C445.525013,50.500014 447.299995,54.599973 448.3,60 Z M413.65,73.5 L469.6,73.5 C470.000002,67.49997 469.500007,61.7500275 468.1,56.25 C466.699993,50.7499725 464.425016,45.8500215 461.275,41.55 C458.124984,37.2499785 454.100025,33.8250128 449.2,31.275 C444.299976,28.7249873 438.550033,27.45 431.95,27.45 C426.049971,27.45 420.675024,28.4999895 415.825,30.6 C410.974976,32.7000105 406.800017,35.5749817 403.3,39.225 C399.799982,42.8750183 397.10001,47.199975 395.2,52.2 C393.29999,57.200025 392.35,62.599971 392.35,68.4 C392.35,74.40003 393.274991,79.899975 395.125,84.9 C396.975009,89.900025 399.599983,94.199982 403,97.8 C406.400017,101.400018 410.549976,104.17499 415.45,106.125 C420.350025,108.07501 425.84997,109.05 431.95,109.05 C440.750044,109.05 448.249969,107.05002 454.45,103.05 C460.650031,99.04998 465.249985,92.4000465 468.25,83.1 L449.5,83.1 C448.799997,85.500012 446.900016,87.7749893 443.8,89.925 C440.699985,92.0750108 437.000022,93.15 432.7,93.15 C426.69997,93.15 422.100016,91.6000155 418.9,88.5 C415.699984,85.3999845 413.950002,80.4000345 413.65,73.5 Z M475.2,29.55 L475.2,107.1 L496.5,107.1 L496.5,66.45 C496.5,58.5499605 497.799987,52.8750172 500.4,49.425 C503.000013,45.9749827 507.199971,44.25 513,44.25 C518.100026,44.25 521.64999,45.8249842 523.65,48.975 C525.65001,52.1250158 526.65,56.899968 526.65,63.3 L526.65,107.1 L547.95,107.1 L547.95,59.4 C547.95,54.599976 547.525004,50.2250198 546.675,46.275 C545.824996,42.3249802 544.350011,38.9750138 542.25,36.225 C540.149989,33.4749862 537.275018,31.3250078 533.625,29.775 C529.974982,28.2249923 525.300029,27.45 519.6,27.45 C515.099978,27.45 510.700022,28.4749898 506.4,30.525 C502.099979,32.5750103 498.600014,35.8499775 495.9,40.35 L495.45,40.35 L495.45,29.55 L475.2,29.55 Z M600.05,107.1 L626.3,29.55 L605.15,29.55 L588.8,82.5 L588.5,82.5 L572.15,29.55 L549.8,29.55 L576.35,107.1 L600.05,107.1 Z M647.95,66.3 L622.45,29.55 L646.75,29.55 L660.4,49.8 L673.9,29.55 L697.45,29.55 L671.95,65.85 L700.6,107.1 L676.3,107.1 L660.1,82.65 L643.9,107.1 L620.05,107.1 L647.95,66.3 Z" id="Dotenvx" fill="#09090B" fill-rule="nonzero"></path>
        </g>
    </g>
</svg>